<svg id="Layer_1" data-name="Layer 1" xmlns="http://www.w3.org/2000/svg" viewBox="0 0 158 27.84"><title>dw-outline</title><path d="M47.12,12.81,39.67.53H22.38l16.9,27.84,7.84-12.92L55,28.37l7.83-12.9v0L71.86.56,54.57.53ZM39.28,25.72,32,13.77l-.2-.33-7-11.54H38.89l7.42,12.23ZM69.42,1.93,62.8,12.83v0L55,25.72l-7-11.59L55.34,1.9ZM157,14.4a1.93,1.93,0,0,0,1.53-2c0-1.36-1.12-2.18-2.93-2.18h-3.79V19h3.88c2,0,3.18-.9,3.18-2.4A2.11,2.11,0,0,0,157,14.4Zm-3.72-2.81h2.25c.94,0,1.5.4,1.5,1.12s-.56,1.17-1.5,1.17h-2.25Zm2.25,6.09h-2.25v-2.5h2.25c1.15,0,1.83.46,1.83,1.24S156.64,17.69,155.5,17.68ZM.84.56,9.09,14.15.84,27.74H18.13l8-13.25.21-.36L18.12.53Zm16.51,25.8H3.28l7.41-12.22L3.28,1.93l14.07,0,7.42,12.23Zm127-8.68h4.92V19h-6.39V10.27h6.24v1.32h-4.77V14h4.27v1.31h-4.27Zm-42.85-1.15c0,1.56-1.37,2.52-3.29,2.52a5.4,5.4,0,0,1-3.57-1.38l.64-1.27a4.62,4.62,0,0,0,3,1.27c1,0,1.63-.39,1.63-1.06,0-1.95-4.72-.86-4.72-4,0-1.5,1.28-2.43,3.18-2.43a5.66,5.66,0,0,1,3.06.9l-.61,1.3a5.28,5.28,0,0,0-2.56-.81c-.86,0-1.42.32-1.42.91C96.76,14.41,101.48,13.39,101.47,16.53Zm2.47-6.26h1.47V19h-1.47Zm5.29,4.37a3.12,3.12,0,0,0,3.19,3.11,4,4,0,0,0,2-.6V14.72h1.28v3.22a6,6,0,0,1-3.39,1.14,4.42,4.42,0,1,1,.09-8.83,5.24,5.24,0,0,1,3.36,1.22l-.84,1.09a3.81,3.81,0,0,0-2.52-1A3.07,3.07,0,0,0,109.23,14.64Zm15.44-4.37h1.45V19h-1.45L120,12.74V19h-1.47V10.27H120l4.68,6.28V10.27ZM88,17.68h4.92V19H86.5V10.27h6.24v1.32H88V14h4.27v1.31H88Zm51.58-7.41h1.52L138.15,19h-1.51l-2.07-6.81L132.47,19H131l-2.89-8.73h1.58l2.12,7.1,2.11-7.1h1.45l2.12,7.1Zm-59.89,0H76.08V19h3.54a4.37,4.37,0,1,0,0-8.73Zm0,7.41H77.55V11.59h2.08a3,3,0,0,1,3.06,3.06A2.92,2.92,0,0,1,79.7,17.68Z" transform="translate(-0.84 -0.53)"/></svg>